<?xml version="1.0" encoding="utf-8"?>
<!-- Generator: Adobe Illustrator 21.1.0, SVG Export Plug-In . SVG Version: 6.00 Build 0)  -->
<svg version="1.1" id="Layer_1" xmlns="http://www.w3.org/2000/svg" xmlns:xlink="http://www.w3.org/1999/xlink" x="0px" y="0px"
	 viewBox="0 0 639.3 584" style="enable-background:new 0 0 639.3 584;" xml:space="preserve">
<style type="text/css">
	.st0{display:none;fill:#C4C4C4;}
	.st1{fill:#FFFFFF;}
</style>
<rect class="st0" width="639.3" height="583.4"/>
<g>
	<path class="st1" d="M491.4,87.5v130.9H364V87.5h-88.2l0,0l-98.6,0.1c18.4,1.4,43.7,6.3,60.2,13.9c20.2,9.3,37.9,21.7,53.1,37.1
		c15.1,15.5,27.1,33.5,35.8,54c8.7,20.6,13,42.1,13,64.6c0,22.2-4.3,43.6-12.8,64.1c-8.5,20.6-20.4,38.6-35.5,54.2
		c-15.2,15.6-32.9,28.1-53.1,37.3c-15.4,7.1-47.3,12.3-64.5,13.9h102.5l0,0H364V286.9h127.4v139.9h88.2V87.5H491.4z"/>
</g>
<g>
	<g>
		<path class="st1" d="M172.3,94.5c22,0,42.9,4.5,62.1,13.3c19.4,8.9,36.5,20.9,51,35.7c14.5,14.8,26,32.2,34.3,51.8
			c8.3,19.6,12.5,40.4,12.5,61.8c0,21.2-4.1,41.8-12.3,61.4c-8.2,19.6-19.6,37.1-34.1,52c-14.5,14.9-31.6,27-51,35.9
			c-19.2,8.8-40.3,13.3-62.6,13.3H48.8V94.5H172.3 M172.3,87.5H41.8v339.3h130.5c23.4,0,45.2-4.6,65.5-13.9
			c20.2-9.3,37.9-21.7,53.1-37.3c15.1-15.6,27-33.7,35.5-54.2c8.6-20.5,12.8-41.9,12.8-64.1c0-22.5-4.4-44-13-64.6
			c-8.7-20.5-20.6-38.5-35.8-54c-15.2-15.4-32.8-27.8-53.1-37.1C217.1,92.2,195.4,87.5,172.3,87.5L172.3,87.5z"/>
	</g>
</g>
<g>
	<path class="st1" d="M43.7,486.7H59c2.7,0,5.2,0.5,7.6,1.6c2.4,1.1,4.4,2.5,6.2,4.3c1.8,1.8,3.2,3.9,4.2,6.3c1,2.4,1.5,4.9,1.5,7.5
		c0,2.6-0.5,5.1-1.5,7.5c-1,2.4-2.4,4.5-4.2,6.3c-1.8,1.8-3.8,3.3-6.2,4.4c-2.4,1.1-4.9,1.6-7.6,1.6H43.7V486.7z M54,517.5h2.4
		c1.8,0,3.4-0.3,4.8-0.8c1.4-0.6,2.6-1.3,3.5-2.3c1-1,1.7-2.1,2.2-3.5c0.5-1.3,0.8-2.8,0.8-4.4c0-1.6-0.3-3-0.8-4.4
		s-1.3-2.5-2.2-3.5c-1-1-2.1-1.8-3.5-2.3c-1.4-0.6-3-0.8-4.7-0.8H54V517.5z"/>
	<path class="st1" d="M102.7,521.2c0-0.8,0.2-1.6,0.5-2.4c0.3-0.8,0.8-1.4,1.3-2c0.6-0.6,1.2-1,2-1.3c0.8-0.3,1.5-0.5,2.4-0.5
		s1.6,0.2,2.4,0.5c0.8,0.3,1.4,0.8,2,1.3c0.6,0.6,1,1.2,1.3,2c0.3,0.8,0.5,1.5,0.5,2.4c0,0.8-0.2,1.6-0.5,2.4
		c-0.3,0.8-0.8,1.4-1.3,2c-0.6,0.6-1.2,1-2,1.3c-0.8,0.3-1.5,0.5-2.4,0.5s-1.6-0.2-2.4-0.5c-0.8-0.3-1.4-0.8-2-1.3
		c-0.6-0.6-1-1.2-1.3-2C102.9,522.9,102.7,522.1,102.7,521.2z"/>
	<path class="st1" d="M151.3,501.9h14.9v-15.3h10.3v39.6h-10.3v-16.3h-14.9v16.3H141v-39.6h10.3V501.9z"/>
	<path class="st1" d="M202,506.5c0-2.9,0.5-5.7,1.6-8.2c1.1-2.5,2.6-4.8,4.5-6.6c1.9-1.9,4.2-3.4,6.9-4.4c2.7-1.1,5.6-1.6,8.9-1.6
		c3.2,0,6.1,0.5,8.8,1.6c2.7,1.1,5,2.5,7,4.4s3.5,4.1,4.5,6.6c1.1,2.5,1.6,5.3,1.6,8.2c0,2.9-0.5,5.7-1.6,8.2
		c-1.1,2.5-2.6,4.8-4.5,6.6c-1.9,1.9-4.3,3.4-7,4.4c-2.7,1.1-5.6,1.6-8.8,1.6c-3.2,0-6.2-0.5-8.9-1.6c-2.7-1.1-5-2.5-6.9-4.4
		c-1.9-1.9-3.4-4.1-4.5-6.6C202.6,512.1,202,509.4,202,506.5z M212.8,506.5c0,1.6,0.3,3,0.9,4.4c0.6,1.3,1.4,2.5,2.4,3.5
		c1,1,2.2,1.7,3.5,2.3c1.3,0.5,2.8,0.8,4.3,0.8c1.5,0,2.9-0.3,4.3-0.8c1.3-0.5,2.5-1.3,3.6-2.3c1-1,1.8-2.1,2.4-3.5
		c0.6-1.3,0.9-2.8,0.9-4.4c0-1.6-0.3-3-0.9-4.4c-0.6-1.3-1.4-2.5-2.4-3.5c-1-1-2.2-1.7-3.6-2.3c-1.3-0.5-2.8-0.8-4.3-0.8
		c-1.5,0-2.9,0.3-4.3,0.8c-1.3,0.5-2.5,1.3-3.5,2.3c-1,1-1.8,2.1-2.4,3.5C213.1,503.4,212.8,504.9,212.8,506.5z"/>
	<path class="st1" d="M294.2,495.4h-12.4v6.6h11.3v8.7h-11.3v15.5h-10.3v-39.6h22.7V495.4z"/>
	<path class="st1" d="M342,519.4h-14.7l-2.4,6.9h-11l15.1-39.6h11.2l15.1,39.6h-11L342,519.4z M339.3,511.6l-4.6-13.2l-4.6,13.2
		H339.3z"/>
	<path class="st1" d="M406,499.9c-2.4-2.9-5.3-4.4-8.8-4.4c-1.5,0-3,0.3-4.3,0.8c-1.3,0.6-2.4,1.3-3.4,2.3c-0.9,1-1.7,2.1-2.2,3.4
		c-0.5,1.3-0.8,2.8-0.8,4.3c0,1.6,0.3,3,0.8,4.4c0.5,1.3,1.3,2.5,2.3,3.5c1,1,2.1,1.8,3.4,2.3c1.3,0.6,2.7,0.8,4.2,0.8
		c3.3,0,6.3-1.4,8.9-4.2v12.2l-1.1,0.4c-1.6,0.6-3,1-4.4,1.2c-1.4,0.3-2.7,0.4-4,0.4c-2.7,0-5.4-0.5-7.9-1.5c-2.5-1-4.7-2.5-6.6-4.4
		c-1.9-1.9-3.4-4.1-4.6-6.7s-1.7-5.4-1.7-8.4s0.6-5.8,1.7-8.4c1.1-2.5,2.7-4.7,4.6-6.6c1.9-1.8,4.1-3.3,6.6-4.3s5.2-1.5,7.9-1.5
		c1.6,0,3.1,0.2,4.6,0.5c1.5,0.3,3.1,0.8,4.8,1.5V499.9z"/>
	<path class="st1" d="M443.6,503l12.6-16.3h12.7l-15.7,18.8l17.2,20.9H457l-13.4-17.2v17.2h-10.3v-39.6h10.3V503z"/>
	<path class="st1" d="M516.5,495.4h-12.2v6.6h11.6v8.7h-11.6v6.8h12.2v8.7H494v-39.6h22.5V495.4z"/>
	<path class="st1" d="M575.9,526.3h-12.8l-9.8-15.2v15.2H543v-39.6h16c2.2,0,4.1,0.3,5.8,1c1.6,0.6,3,1.5,4.1,2.7
		c1.1,1.1,1.9,2.4,2.4,3.9c0.5,1.5,0.8,3,0.8,4.7c0,3-0.7,5.5-2.2,7.3c-1.5,1.9-3.6,3.1-6.4,3.8L575.9,526.3z M553.3,504.4h1.9
		c2,0,3.6-0.4,4.7-1.3c1.1-0.8,1.6-2,1.6-3.6s-0.5-2.8-1.6-3.6c-1.1-0.8-2.6-1.3-4.7-1.3h-1.9V504.4z"/>
</g>
</svg>
